HIERARCHY
ROOT Hips
{
  OFFSET -102.467 93.6631 130.069
  CHANNELS 6 Xposition Yposition Zposition Zrotation Xrotation Yrotation
  JOINT LeftUpLeg
  {
    OFFSET 8.64259 1.95398 -2.38835
    CHANNELS 3 Zrotation Xrotation Yrotation
    JOINT LeftLeg
    {
      OFFSET 43.7702 0 0
      CHANNELS 3 Zrotation Xrotation Yrotation
      JOINT LeftFoot
      {
        OFFSET 40.6238 0 0
        CHANNELS 3 Zrotation Xrotation Yrotation
        JOINT LeftToeBase
        {
          OFFSET 12.7242 0 0
          CHANNELS 3 Zrotation Xrotation Yrotation
          End Site
          {
            OFFSET 0 0 0
          }
        }
      }
    }
  }
  JOINT RightUpLeg
  {
    OFFSET -8.2249 1.95398 -2.59336
    CHANNELS 3 Zrotation Xrotation Yrotation
    JOINT RightLeg
    {
      OFFSET 43.5653 0 0
      CHANNELS 3 Zrotation Xrotation Yrotation
      JOINT RightFoot
      {
        OFFSET 40.6238 0 0
        CHANNELS 3 Zrotation Xrotation Yrotation
        JOINT RightToeBase
        {
          OFFSET 12.7242 0 0
          CHANNELS 3 Zrotation Xrotation Yrotation
          End Site
          {
            OFFSET 0 0 0
          }
        }
      }
    }
  }
  JOINT Spine
  {
    OFFSET 0.165834 0.87714 6.61349
    CHANNELS 3 Zrotation Xrotation Yrotation
    JOINT Spine1
    {
      OFFSET 7.38963 1.71661e-005 0
      CHANNELS 3 Zrotation Xrotation Yrotation
      JOINT Spine2
      {
        OFFSET 11.9445 1.14441e-005 0
        CHANNELS 3 Zrotation Xrotation Yrotation
        JOINT Spine3
        {
          OFFSET 14.7254 4.19617e-005 0
          CHANNELS 3 Zrotation Xrotation Yrotation
          JOINT Spine4
          {
            OFFSET 10.9679 0 0
            CHANNELS 3 Zrotation Xrotation Yrotation
            JOINT RightShoulder
            {
              OFFSET 2.46616 -1.6653 3.69651
              CHANNELS 3 Zrotation Xrotation Yrotation
              JOINT RightArm
              {
                OFFSET 13.0012 0 0
                CHANNELS 3 Zrotation Xrotation Yrotation
                JOINT RightForeArm
                {
                  OFFSET 28.7848 1.52588e-005 0
                  CHANNELS 3 Zrotation Xrotation Yrotation
                  JOINT RightHand
                  {
                    OFFSET 26.5688 1.52588e-005 0
                    CHANNELS 3 Zrotation Xrotation Yrotation
                    End Site
                    {
                      OFFSET 0 0 0
                    }
                  }
                }
              }
            }
            JOINT LeftShoulder
            {
              OFFSET 2.38034 -1.29275 -3.7523
              CHANNELS 3 Zrotation Xrotation Yrotation
              JOINT LeftArm
              {
                OFFSET 16.3182 6.10351e-005 0
                CHANNELS 3 Zrotation Xrotation Yrotation
                JOINT LeftForeArm
                {
                  OFFSET 27.0901 0 0
                  CHANNELS 3 Zrotation Xrotation Yrotation
                  JOINT LeftHand
                  {
                    OFFSET 24.5451 1.52588e-005 0
                    CHANNELS 3 Zrotation Xrotation Yrotation
                    End Site
                    {
                      OFFSET 0 0 0
                    }
                  }
                }
              }
            }
            JOINT Neck
            {
              OFFSET 5.0226 -0.0266342 0
              CHANNELS 3 Zrotation Xrotation Yrotation
              JOINT Head
              {
                OFFSET 6.69363 2.86102e-005 0
                CHANNELS 3 Zrotation Xrotation Yrotation
                End Site
                {
                  OFFSET 0 0 0
                }
              }
            }
          }
        }
      }
    }
  }
}
MOTION
Frames:	11
Frame Time:	0.0416667
269.411 80.7109 -276.374 -93.5193 -43.1054 -92.2417 -124.778 14.4692 104.25 42.3382 18.8891 -70.6508 46.4107 12.1605 -16.0504 -14.9216 -0.357595 16.8296 -172.956 70.3983 86.3242 -81.0537 -59.8891 -0.50917 18.5559 25.0788 10.9531 -52.1323 -10.7235 49.6248 1.69777 5.78444 -90.2248 15.3255 3.24416 -0.948912 3.65809 3.19926 -1.09092 -18.9096 3.37919 0.0710515 1.10304 3.3792 0.0710499 125.032 -41.0382 -43.0854 66.8475 -4.50219 -71.7969 -25.9726 15.5191 -0.00737605 -94.4804 31.2229 -34.389 -120.358 -56.7533 39.4558 -13.9748 -11.7929 70.4807 17.3604 6.9505 -82.3579 -27.128 -5.3347 19.2062 -62.6958 9.87798 -16.1584 36.24 20.3242 45.6866 
269.643 80.649 -276.592 -93.5943 -43.1609 -92.4006 -124.438 14.409 104.023 42.6453 18.9432 -70.7936 46.1887 12.1662 -16.2207 -14.5735 -0.346196 16.8295 -172.807 70.5164 86.1533 -81.7252 -59.6433 -0.715713 18.1472 25.2053 11.4232 -51.9578 -10.0324 48.6215 1.68495 5.79903 -90.2069 15.2956 3.22798 -0.909186 3.62829 3.18485 -1.05051 -18.9391 3.35183 0.104066 1.07353 3.35183 0.104065 125.036 -41.2996 -43.208 66.291 -4.62749 -71.9945 -25.658 17.9933 -0.00747259 -94.0063 32.9147 -36.2286 -120.181 -56.6365 39.6142 -14.0527 -11.7793 70.4 17.1982 6.90457 -82.598 -27.096 -5.42657 19.639 -62.613 9.90588 -16.1706 36.4104 20.4234 45.6717 
270.318 80.4723 -277.225 -93.8162 -43.3228 -92.8641 -123.49 14.2304 103.37 43.5164 19.0953 -71.195 45.5368 12.1737 -16.6829 -13.5389 -0.309715 16.8279 -172.36 70.825 85.6488 -83.6261 -58.9025 -1.30579 16.9396 25.5672 12.8202 -51.2752 -8.01746 45.7186 1.64735 5.8416 -90.1551 15.2085 3.18017 -0.793864 3.54107 3.14216 -0.933189 -19.0254 3.27159 0.199646 0.987261 3.27158 0.199635 125.042 -42.0579 -43.5684 64.6693 -4.97496 -72.5673 -24.8084 25.765 -0.00789168 -91.4043 37.9663 -42.6109 -119.664 -56.2936 40.0766 -14.282 -11.7398 70.1617 16.7288 6.77445 -83.293 -27.0003 -5.69136 20.8932 -62.3693 9.9879 -16.2064 36.9027 20.7097 45.6233 
271.399 80.1947 -278.239 -94.1856 -43.5852 -93.615 -122.085 13.934 102.332 44.8509 19.3253 -71.7997 44.472 12.1619 -17.3321 -11.8112 -0.24304 16.8092 -171.603 71.2136 84.8156 -86.5253 -57.6243 -2.21922 14.9629 26.1187 15.1356 -49.6343 -4.82734 41.075 1.58581 5.91093 -90.0722 15.0667 3.10092 -0.609122 3.39921 3.07109 -0.745118 -19.1656 3.14047 0.351937 0.847088 3.14048 0.351937 125.036 -43.2707 -44.1589 62.0603 -5.47987 -73.4789 -23.6386 40.1399 -0.00929677 -81.8673 45.5724 -57.3189 -118.83 -55.7306 40.8262 -14.66 -11.6771 69.7695 15.9792 6.57987 -84.4073 -26.8382 -6.1117 22.9038 -61.9689 10.1237 -16.2646 37.6826 21.1654 45.5313 
272.847 79.8296 -279.594 -94.7097 -43.9427 -94.6404 -120.419 13.5261 100.964 46.5194 19.6128 -72.5369 43.0241 12.1093 -18.0487 -9.37206 -0.143628 16.7555 -170.527 71.5298 83.6653 -90.1544 -55.705 -3.37406 12.2969 26.7762 18.3095 -46.3617 -0.757101 34.7882 1.501 6.00607 -89.9611 14.8723 2.98943 -0.361143 3.2047 2.97065 -0.492494 -19.3576 2.95963 0.554807 0.655085 2.95965 0.554799 124.994 -44.8916 -44.9764 58.5536 -6.05669 -74.683 -22.2624 62.47 -0.0153763 -57.0312 49.6088 -86.6164 -117.697 -54.9466 41.8499 -15.1884 -11.5931 69.2241 14.9757 6.35116 -85.9078 -26.6018 -6.66896 25.6107 -61.4126 10.3157 -16.3449 38.7117 21.7719 45.3816 
274.62 79.389 -281.252 -95.4012 -44.3887 -95.9318 -118.704 13.0243 99.3208 48.3823 19.9479 -73.3271 41.2486 11.9984 -18.724 -6.21513 -0.0144334 16.663 -169.156 71.6014 82.2498 -94.2845 -53.1905 -4.69201 9.15254 27.6612 22.1052 -40.6121 3.65781 26.8635 1.39293 6.12633 -89.8244 14.6269 2.84433 -0.0560189 2.95903 2.83912 -0.181262 -19.5997 2.72958 0.80207 0.412922 2.72956 0.802054 124.884 -46.8712 -46.0269 54.2581 -6.61094 -76.1203 159.272 88.709 -179.685 -27.1346 38.8736 -117.671 -116.282 -53.9357 43.1388 -15.8724 -11.488 68.5245 13.7435 6.11396 -87.7574 -26.2776 -7.34113 28.9566 -60.6999 10.5678 -16.4476 39.9506 22.5103 45.1585 
276.673 78.8855 -283.167 -96.2767 -44.9141 -97.484 -117.14 12.4626 97.4631 50.3056 20.3401 -74.0899 39.2257 11.8076 -19.2692 -2.36445 0.136818 16.5372 -167.594 71.2433 80.6992 -98.7846 -50.3425 -6.13573 5.83539 29.286 26.0987 -31.3129 7.44035 17.3384 1.26188 6.2712 -89.665 14.3319 2.66419 0.300132 2.66367 2.67481 0.182502 -19.8905 2.45076 1.08743 0.122169 2.45075 1.08742 124.667 -49.1535 -47.3236 49.3138 -7.05205 -77.7143 162.373 59.2344 -179.986 -10.0073 18.3399 -131.284 -114.599 -52.6868 44.6875 -16.7207 -11.3596 67.6677 12.307 5.89382 -89.9114 -25.8487 -8.10133 32.8816 -59.8302 10.8845 -16.5737 41.3583 23.3612 44.8467 
278.956 78.3344 -285.293 -97.3557 -45.5068 -99.2938 -115.879 11.8889 95.4411 52.1904 20.8242 -74.758 37.0504 11.4897 -19.6186 2.10536 0.300167 16.3857 -166.014 70.2512 79.2212 -103.066 -44.6243 -7.32018 2.5846 29.8281 29.9871 -16.9685 8.81144 7.11577 1.10808 6.43986 -89.4855 13.989 2.44762 0.700854 2.32026 2.47609 0.592384 -20.2281 2.1238 1.40432 -0.215477 2.12379 1.40431 124.291 -51.6732 -48.8861 43.9007 -7.30764 -79.3717 166.012 34.7967 -179.991 -0.441533 -0.403127 -133.545 -112.66 -51.1843 46.4976 -17.7464 -11.2018 66.6486 10.6917 5.72944 -92.3075 -25.2988 -8.91851 37.3175 -58.8037 11.27 -16.7246 42.8925 24.3036 44.4322 
281.419 77.7542 -287.58 -98.6591 -46.1507 -101.36 -114.993 11.3413 93.2906 54.0133 21.464 -75.2939 34.8208 10.9458 -19.7406 7.0506 0.466529 16.2024 -164.569 68.3809 78.0084 -106.816 -35.3575 -8.22656 -0.444642 30.2421 32.9616 3.8362 5.69647 1.30685 0.932017 6.63163 -89.2888 13.6002 2.19369 1.13953 1.93071 2.2417 1.04184 -20.6107 1.74984 1.7462 -0.598078 1.74981 1.7462 123.696 -54.3574 -50.7447 38.2267 -7.33745 -80.9952 170.059 16.5787 -179.994 6.39133 -13.806 -131.322 -110.474 -49.4077 48.5785 -18.967 -11.0025 65.4587 8.92533 5.65408 -94.8873 -24.6146 -9.75754 42.1882 -57.6228 11.7275 -16.9018 44.5113 25.3157 43.9043 
284.021 77.1668 -289.986 -100.208 -46.8256 -103.683 -114.454 10.8202 91.0263 55.8263 22.3479 -75.6952 32.6331 10.0167 -19.6481 12.2534 0.627879 15.944 -163.243 65.3035 77.1313 -109.306 -18.7951 -9.02441 -3.67946 30.2169 34.3442 28.8461 2.36556 14.2063 0.7343 6.84551 -89.0775 13.1678 1.90174 1.60963 1.49734 1.97073 1.52436 -21.036 1.33017 2.10665 -1.0234 1.33018 2.10665 122.809 -57.1293 -52.9459 32.5034 -7.14009 -82.5003 174.22 3.24863 -179.997 11.8937 -22.6952 -127.749 -108.049 -47.3333 50.9481 -20.4043 -10.7409 64.085 7.03606 5.70347 -97.5815 -23.7869 -10.5772 47.4119 -56.2927 12.2575 -17.1052 46.1761 26.3762 43.2565 
286.73 76.5967 -292.479 -102.022 -47.5078 -106.265 -114.148 10.2753 88.6367 57.7358 23.5899 -75.9861 30.5965 8.48067 -19.4037 17.4127 0.770648 15.4958 -162.12 60.6189 76.9262 -109.315 10.6168 -11.201 -7.44849 28.9752 32.9278 35.0548 14.2928 56.9633 0.515519 7.08033 -88.8542 12.6944 1.57128 2.10462 1.0228 1.66236 2.03345 -21.5016 0.866324 2.47934 -1.48895 0.866336 2.47934 121.54 -59.9086 -55.5529 26.9308 -6.7485 -83.8274 178.324 -6.72247 -179.999 16.4236 -28.5817 -124.119 -105.389 -44.9325 53.6383 -22.0851 -10.3836 62.5075 5.05389 5.91873 -100.307 -22.8148 -11.3336 52.9 -54.8211 12.8577 -17.3325 47.8498 27.4638 42.4866 
